<?xml version="1.0" standalone="no"?>
<!DOCTYPE svg PUBLIC "-//W3C//DTD SVG 20010904//EN"
 "http://www.w3.org/TR/2001/REC-SVG-20010904/DTD/svg10.dtd">
<svg version="1.0" xmlns="http://www.w3.org/2000/svg"
 width="256.000000pt" height="256.000000pt" viewBox="0 0 256.000000 256.000000"
 preserveAspectRatio="xMidYMid meet">
<metadata>
Created by potrace 1.14, written by Peter Selinger 2001-2017
</metadata>
<g transform="translate(0.000000,256.000000) scale(0.100000,-0.100000)"
fill="#000000" stroke="none">
<path d="M190 2551 c-69 -22 -130 -73 -166 -141 -18 -33 -19 -83 -21 -1120 -3
-1072 -2 -1086 18 -1130 27 -60 74 -107 134 -136 l50 -24 1085 3 1085 2 40 21
c56 30 94 71 121 129 l24 50 -3 1085 -2 1085 -22 40 c-25 47 -74 95 -123 121
-33 18 -83 19 -1115 21 -594 1 -1091 -2 -1105 -6z"/>
</g>
</svg>
